<?xml version="1.0" encoding="UTF-8" standalone="no"?>
<!-- Created with Inkscape (http://www.inkscape.org/) -->

<svg
   width="8.4666662mm"
   height="8.4666662mm"
   viewBox="0 0 8.4666662 8.4666662"
   version="1.1"
   id="svg830"
   inkscape:version="1.1.1 (3bf5ae0d25, 2021-09-20)"
   sodipodi:docname="squiddio.svg"
   xmlns:inkscape="http://www.inkscape.org/namespaces/inkscape"
   xmlns:sodipodi="http://sodipodi.sourceforge.net/DTD/sodipodi-0.dtd"
   xmlns="http://www.w3.org/2000/svg"
   xmlns:svg="http://www.w3.org/2000/svg">
  <sodipodi:namedview
     id="namedview832"
     pagecolor="#ffffff"
     bordercolor="#666666"
     borderopacity="1.0"
     inkscape:pageshadow="2"
     inkscape:pageopacity="0.0"
     inkscape:pagecheckerboard="0"
     inkscape:document-units="mm"
     showgrid="false"
     inkscape:zoom="24.858361"
     inkscape:cx="9.3127619"
     inkscape:cy="17.780738"
     inkscape:window-width="1920"
     inkscape:window-height="1122"
     inkscape:window-x="-8"
     inkscape:window-y="-8"
     inkscape:window-maximized="1"
     inkscape:current-layer="layer1" />
  <defs
     id="defs827" />
  <g
     inkscape:label="Layer 1"
     inkscape:groupmode="layer"
     id="layer1"
     transform="translate(-33.053936,-69.497742)"
     style="display:inline">
    <rect
       style="display:inline;fill:#333333;fill-opacity:1;stroke:#8a8a96;stroke-width:0;stroke-miterlimit:4;stroke-dasharray:none;stroke-opacity:0.905512"
       id="rect1096"
       width="8.5042639"
       height="8.4829769"
       x="33.043293"
       y="69.508385" />
    <path
       style="display:inline;fill:#9d9ca5;fill-opacity:1;stroke-width:0.0340027"
       d="m 34.17558,77.827849 c -0.375283,-0.126073 -0.710354,-0.423927 -0.900627,-0.800594 l -0.102008,-0.201936 v -3.077243 -3.077242 l 0.09668,-0.197006 c 0.148545,-0.302685 0.424638,-0.578706 0.72967,-0.729479 l 0.258144,-0.127598 2.956703,-0.0094 c 3.226435,-0.01027 3.138743,-0.0149 3.477533,0.183646 0.336583,0.197251 0.761427,0.788721 0.710959,0.989802 -0.01064,0.04238 -0.0037,0.07706 0.01531,0.07706 0.02326,0 0.03465,0.950698 0.03465,2.892234 0,2.17984 -0.0097,2.88625 -0.03931,2.867939 -0.02816,-0.0174 -0.03313,0.0066 -0.01751,0.08469 0.01548,0.07738 0.01053,0.102024 -0.01705,0.08498 -0.02636,-0.01629 -0.03268,-4.32e-4 -0.01967,0.04931 0.01055,0.04033 0.0037,0.07332 -0.01528,0.07332 -0.01895,0 -0.02534,0.02375 -0.01421,0.05277 0.01114,0.02902 0.0067,0.04441 -0.0098,0.0342 -0.01653,-0.01022 -0.03913,0.0051 -0.05023,0.034 -0.01326,0.03455 -0.0057,0.04528 0.02194,0.03129 0.02316,-0.01171 0.01241,0.0028 -0.02389,0.03224 -0.0363,0.02944 -0.0525,0.05353 -0.036,0.05353 0.0165,0 3.06e-4,0.02409 -0.036,0.05353 -0.0363,0.02944 -0.04305,0.04331 -0.015,0.03081 0.02805,-0.01249 -0.01369,0.03327 -0.09277,0.101696 -0.07908,0.06842 -0.183915,0.173142 -0.232973,0.232707 -0.04906,0.05956 -0.07866,0.08535 -0.06579,0.05729 0.01287,-0.02805 -0.0063,-0.01459 -0.04251,0.0299 -0.03626,0.0445 -0.102615,0.08463 -0.147462,0.08917 -0.133647,0.01354 -0.137509,0.0154 -0.113292,0.05459 0.01585,0.02564 -0.0011,0.0299 -0.05326,0.01336 -0.05558,-0.01764 -0.06954,-0.01299 -0.051,0.017 0.01832,0.02965 0.0051,0.03482 -0.04675,0.01835 -0.03974,-0.01261 -0.07226,-0.01043 -0.07226,0.0049 0,0.01529 -1.33503,0.02779 -2.966733,0.02779 -2.56097,0 -2.987722,-0.0071 -3.12019,-0.05155 z m 2.759559,-0.952317 c 1.051106,-0.103858 2.279384,-0.395277 3.525346,-0.836417 0.557029,-0.197219 0.588017,-0.218461 0.515731,-0.353529 -0.03284,-0.06136 -0.04888,-0.05882 -0.365529,0.05794 -0.956485,0.352685 -2.051128,0.651646 -2.96639,0.810156 -0.718745,0.124477 -1.729447,0.155328 -2.248219,0.06863 -0.807671,-0.134985 -1.374729,-0.472675 -1.668841,-0.993813 -0.05596,-0.09916 -0.113893,-0.180286 -0.128737,-0.180286 -0.01485,0 -0.06096,0.02751 -0.102479,0.06113 l -0.07549,0.06113 0.183719,0.27011 c 0.483563,0.710951 1.30566,1.052323 2.565829,1.065449 0.227111,0.0024 0.571388,-0.01136 0.76506,-0.03049 z m -1.042853,-1.901671 c 0.06734,-0.130219 0.06899,-0.125081 -0.05394,-0.167934 -0.08268,-0.02882 -0.100264,-0.04999 -0.08043,-0.09683 0.147982,-0.349405 0.151892,-0.644461 0.01188,-0.896223 -0.220774,-0.396976 -0.888477,-0.409016 -1.145482,-0.02066 -0.08218,0.124178 -0.09126,0.168624 -0.09126,0.446416 0,0.262327 0.01165,0.327235 0.0778,0.433619 0.142885,0.229786 0.580307,0.37027 0.838396,0.269262 0.04431,-0.01734 0.11162,1.36e-4 0.204016,0.05298 0.174527,0.09982 0.176838,0.09962 0.239024,-0.02064 z m -0.810344,-0.274669 c -0.211281,-0.06332 -0.319937,-0.284732 -0.277758,-0.566006 0.05569,-0.37139 0.470968,-0.510412 0.685293,-0.229417 0.09985,0.130914 0.1234,0.407085 0.04985,0.584653 l -0.04448,0.107388 -0.138524,-0.07067 c -0.132827,-0.06776 -0.140369,-0.06815 -0.183373,-0.0093 -0.05897,0.08064 -0.05704,0.150345 0.0041,0.150345 0.02695,0 0.05845,0.0153 0.07001,0.034 0.02465,0.03989 -0.02992,0.03957 -0.165167,-9.59e-4 z m -0.879286,0.181599 c 0.211682,-0.158043 0.17223,-0.447449 -0.07265,-0.532958 -0.07755,-0.02708 -0.202199,-0.07045 -0.277005,-0.09639 -0.141731,-0.04914 -0.16303,-0.08788 -0.07785,-0.14161 0.06853,-0.04323 0.230864,0.0017 0.230864,0.06393 0,0.05497 0.03992,0.06107 0.195684,0.02992 0.127012,-0.0254 0.115257,-0.110784 -0.03235,-0.234988 -0.177468,-0.14933 -0.60906,-0.0983 -0.706368,0.08353 -0.113583,0.212232 0.03156,0.408283 0.356028,0.480895 0.20795,0.04654 0.29089,0.110759 0.226369,0.175281 -0.07024,0.07024 -0.282633,0.04797 -0.338014,-0.03544 -0.05225,-0.0787 -0.188244,-0.09915 -0.278753,-0.04192 -0.04332,0.02739 -0.04061,0.04515 0.01942,0.126989 0.159574,0.217569 0.543912,0.280097 0.754632,0.122771 z m 2.418952,0.0034 c 0.100675,-0.08471 0.104617,-0.08535 0.104617,-0.017 0,0.0602 0.02074,0.07103 0.136011,0.07103 h 0.13601 v -0.51004 -0.51004 h -0.13601 -0.136011 v 0.303811 c 0,0.339634 -0.03104,0.456077 -0.136663,0.512603 -0.05667,0.03033 -0.08945,0.027 -0.15464,-0.01572 -0.07932,-0.05197 -0.08273,-0.06959 -0.08273,-0.427451 V 73.91809 H 36.216181 36.08017 v 0.427649 c 0,0.427328 7.5e-5,0.427723 0.09939,0.527041 0.130275,0.130276 0.295669,0.134528 0.442041,0.01136 z m 1.734136,0 c 0.100675,-0.08471 0.104617,-0.08535 0.104617,-0.017 0,0.0602 0.02074,0.07103 0.136011,0.07103 h 0.136011 v -0.697054 -0.697055 h -0.136011 -0.136011 v 0.22189 0.221891 l -0.107542,-0.05561 c -0.130856,-0.06767 -0.342929,-0.04737 -0.443832,0.04248 -0.102935,0.09166 -0.162682,0.258282 -0.162682,0.45368 0,0.425208 0.341889,0.680879 0.609439,0.455751 z m -0.204991,-0.162249 c -0.166214,-0.08254 -0.17329,-0.481162 -0.01044,-0.587868 0.197882,-0.129657 0.374308,0.146907 0.279737,0.438514 -0.05119,0.157853 -0.146145,0.210513 -0.269302,0.149354 z m 1.395085,0.162249 c 0.100675,-0.08471 0.104617,-0.08535 0.104617,-0.017 0,0.0602 0.02074,0.07103 0.136011,0.07103 h 0.13601 v -0.697054 -0.697055 h -0.13601 -0.136011 v 0.22189 0.221891 l -0.107542,-0.05561 c -0.130856,-0.06767 -0.342929,-0.04737 -0.443833,0.04248 -0.102934,0.09166 -0.162681,0.258282 -0.162681,0.45368 0,0.425208 0.341889,0.680879 0.609439,0.455751 z m -0.204992,-0.162249 c -0.166214,-0.08254 -0.173289,-0.481162 -0.01043,-0.587868 0.197882,-0.129657 0.374308,0.146907 0.279736,0.438514 -0.05119,0.157853 -0.146145,0.210513 -0.269302,0.149354 z M 37.542289,74.42813 v -0.51004 h -0.136011 -0.13601 v 0.51004 0.51004 h 0.13601 0.136011 z m 2.856225,0.391031 c 0,-0.113342 -0.0057,-0.11901 -0.119009,-0.11901 -0.113343,0 -0.11901,0.0057 -0.11901,0.11901 0,0.113342 0.0057,0.119009 0.11901,0.119009 0.113342,0 0.119009,-0.0057 0.119009,-0.119009 z m 0.306024,-0.136011 c 0,-0.232351 -0.006,-0.25502 -0.068,-0.25502 -0.06196,0 -0.06801,0.02267 -0.06801,0.25502 0,0.232352 0.006,0.25502 0.06801,0.25502 0.06196,0 0.068,-0.02267 0.068,-0.25502 z m 0.528587,0.171559 c 0.234121,-0.234121 -0.106503,-0.57941 -0.347881,-0.352647 -0.111253,0.104517 -0.106218,0.273514 0.01089,0.365635 0.118848,0.09349 0.234989,0.08901 0.336987,-0.01299 z m -0.255012,-0.06768 c -0.05505,-0.06633 -0.03251,-0.190442 0.04294,-0.236418 0.04912,-0.02993 0.07136,-0.02419 0.110509,0.02853 0.06305,0.08491 0.06192,0.137253 -0.0044,0.203589 -0.0662,0.0662 -0.09692,0.06709 -0.14903,0.0043 z M 40.704538,74.30912 c 0,-0.02834 -0.03023,-0.051 -0.068,-0.051 -0.03778,0 -0.06801,0.02267 -0.06801,0.051 0,0.02833 0.03022,0.051 0.06801,0.051 0.03778,0 0.068,-0.02267 0.068,-0.051 z m -3.162249,-0.64605 c 0,-0.116176 -0.0032,-0.11901 -0.136011,-0.11901 -0.132772,0 -0.13601,0.0028 -0.13601,0.11901 0,0.116176 0.0032,0.119009 0.13601,0.119009 0.132773,0 0.136011,-0.0028 0.136011,-0.119009 z m -2.430387,-0.87712 c 0.411669,-0.129743 0.769648,-0.17045 1.335497,-0.151861 0.274914,0.009 0.528073,0.0284 0.562577,0.04304 0.05888,0.02498 0.06108,0.01222 0.03583,-0.207776 -0.09104,-0.793078 0.06266,-1.473989 0.446412,-1.97768 l 0.181541,-0.238279 -0.108237,-0.02236 c -0.232874,-0.04811 -0.664839,-0.05891 -0.918337,-0.02295 -0.597418,0.08474 -1.10813,0.33365 -1.502081,0.732072 -0.431604,0.436503 -0.629034,0.884538 -0.655595,1.487769 -0.0088,0.199638 -0.0057,0.417594 0.0068,0.484348 l 0.02277,0.121369 0.160008,-0.08085 c 0.088,-0.04447 0.282779,-0.119546 0.432833,-0.166838 z m 4.164081,-0.06118 c -0.05907,-0.431443 0.01226,-0.894905 0.186142,-1.209452 l 0.07828,-0.141597 -0.07248,-0.01945 c -0.139062,-0.03732 -0.452583,-0.01998 -0.610272,0.03375 -0.189615,0.06461 -0.46805,0.305476 -0.586229,0.507134 -0.10968,0.187154 -0.196492,0.598587 -0.168556,0.798839 0.04061,0.291098 0.0063,0.271796 0.487301,0.273981 0.237183,0.0011 0.492447,0.01359 0.567253,0.02781 0.07481,0.01422 0.140785,0.02259 0.14662,0.0186 0.0058,-0.004 -0.0068,-0.134311 -0.02805,-0.289614 z m 1.700576,4.746603 c 0.04392,-0.04675 0.08751,-0.08501 0.09686,-0.08501 0.0094,0 -0.01893,0.03825 -0.06286,0.08501 -0.04392,0.04675 -0.08751,0.08501 -0.09686,0.08501 -0.0094,0 0.01893,-0.03825 0.06286,-0.08501 z"
       id="path972" />
  </g>
</svg>
